<svg width="128" height="128" viewBox="0 0 128 128" fill="none" xmlns="http://www.w3.org/2000/svg">
<rect width="128" height="128" fill="white"/>
<path d="M61.1031 14.1394C54.2244 15.2609 49.2688 20.0547 47.7648 27.0545C47.5922 27.8555 47.5429 28.6442 47.5429 30.8378C47.5429 33.4627 47.5676 33.6845 47.8881 34.9168C48.825 38.5276 50.6987 41.6701 54.5695 46.1312C59.1923 51.4426 61.5468 56.2242 61.9783 61.1536L62.0646 62.1394H61.5592C60.7209 62.1394 58.3047 61.6711 57.0227 61.2645C56.357 61.055 55.1366 60.562 54.323 60.18C51.6233 58.8984 49.466 57.4072 45.9774 54.4003C41.7614 50.7772 39.111 49.1012 36.0168 48.1153C31.1968 46.5872 25.4769 47.3389 21.3226 50.0501C17.6243 52.4655 15.1958 56.0886 14.2466 60.599C13.9261 62.1394 13.9138 66.0337 14.2343 67.5618C15.6766 74.426 20.6815 79.2691 27.5725 80.4521C29.2121 80.7233 32.1953 80.7233 33.8595 80.4398C37.7057 79.7867 41.3053 77.7903 45.9157 73.7605C51.4877 68.8927 55.9995 66.6375 61.1524 66.1322L62.0646 66.046L61.9783 66.9579C61.8674 68.1779 61.4606 70.1251 61.0907 71.2588C60.7086 72.4172 59.2786 75.3379 58.502 76.5579C57.6144 77.9505 55.679 80.4891 54.1381 82.2883C50.6987 86.2812 48.7264 89.6701 47.8758 93.0591C47.5676 94.2791 47.5429 94.5502 47.5429 97.1381C47.5429 99.3317 47.5922 100.12 47.7648 100.921C49.2934 108.02 54.323 112.814 61.3373 113.849C63.0015 114.095 66.0217 114.034 67.5133 113.713C70.9527 112.986 73.64 111.544 75.9329 109.166C78.1272 106.898 79.5325 104.212 80.2352 100.921C80.4078 100.12 80.4571 99.3317 80.4571 97.1381C80.4571 94.5502 80.4324 94.2791 80.1242 93.0591C79.249 89.5838 77.3013 86.2812 73.677 82.1035C71.9388 80.1071 70.4226 78.123 69.4857 76.6195C68.6721 75.3256 67.4887 72.9348 67.0449 71.6901C66.6381 70.5194 66.1326 68.2149 66.0217 67.0195L65.9354 66.046L66.8476 66.1322C72.0005 66.6375 76.5123 68.8927 82.0843 73.7605C84.9319 76.2498 87.0646 77.741 89.3328 78.8378C92.0941 80.181 94.1651 80.6493 97.284 80.6616C100.206 80.6616 102.486 80.1687 104.902 79.0226C109.624 76.7674 112.656 72.8485 113.766 67.5618C114.086 66.0337 114.074 62.1394 113.753 60.599C112.496 54.6098 108.477 50.0624 102.831 48.2139C99.3796 47.0801 94.9664 47.0801 91.7243 48.2016C88.6178 49.2614 86.0537 50.9251 81.7514 54.6221C77.6094 58.1959 74.355 60.1923 70.9773 61.2645C69.6953 61.6711 67.2791 62.1394 66.4408 62.1394H65.9354L66.0217 61.1782C66.1573 59.6747 66.675 57.284 67.1681 55.99C68.4009 52.6627 70.1884 49.8776 73.603 45.934C77.893 40.9554 79.8777 37.283 80.4078 33.3394C80.5927 31.9099 80.4817 28.1143 80.2105 26.9312C79.4955 23.6901 78.0902 21.0406 75.9329 18.81C73.6524 16.4563 71.0143 15.0144 67.575 14.2627C66.2559 13.9792 62.5577 13.9053 61.1031 14.1394Z" fill="#FD5B1D"/>
</svg>
